<mxfile host="65bd71144e">
    <diagram id="z7kLNe49CDq8-YhM_4ui" name="Page-1">
        <mxGraphModel dx="1057" dy="1175" grid="1" gridSize="10" guides="1" tooltips="1" connect="1" arrows="1" fold="1" page="1" pageScale="1" pageWidth="850" pageHeight="1100" math="0" shadow="0">
            <root>
                <mxCell id="0"/>
                <mxCell id="1" parent="0"/>
                <mxCell id="2" value="" style="verticalLabelPosition=bottom;shadow=0;dashed=0;align=center;html=1;verticalAlign=top;shape=mxgraph.electrical.abstract.summation_point;" parent="1" vertex="1">
                    <mxGeometry x="450" y="130" width="50" height="50" as="geometry"/>
                </mxCell>
                <mxCell id="3" value="16mode" style="verticalLabelPosition=bottom;shadow=0;dashed=0;align=center;html=1;verticalAlign=top;shape=mxgraph.electrical.abstract.multiplier;" parent="1" vertex="1">
                    <mxGeometry x="290" y="150" width="50" height="50" as="geometry"/>
                </mxCell>
                <mxCell id="4" value="SAT" style="shape=mxgraph.electrical.abstract.function;html=1;shadow=0;dashed=0;align=center;strokeWidth=1;fontSize=24" parent="1" vertex="1">
                    <mxGeometry x="450" y="250" width="50" height="50" as="geometry"/>
                </mxCell>
                <mxCell id="5" value="8mode_1" style="verticalLabelPosition=bottom;shadow=0;dashed=0;align=center;html=1;verticalAlign=top;shape=mxgraph.electrical.abstract.multiplier;" parent="1" vertex="1">
                    <mxGeometry x="290" y="295" width="50" height="50" as="geometry"/>
                </mxCell>
                <mxCell id="7" value="Mux" style="shadow=0;dashed=0;align=center;html=1;strokeWidth=1;shape=mxgraph.electrical.abstract.mux2;" parent="1" vertex="1">
                    <mxGeometry x="585" y="150" width="80" height="120" as="geometry"/>
                </mxCell>
                <mxCell id="11" value="8mode_2" style="verticalLabelPosition=bottom;shadow=0;dashed=0;align=center;html=1;verticalAlign=top;shape=mxgraph.electrical.abstract.multiplier;" parent="1" vertex="1">
                    <mxGeometry x="290" y="440" width="50" height="50" as="geometry"/>
                </mxCell>
                <mxCell id="13" value="Demux" style="shadow=0;dashed=0;align=center;html=1;strokeWidth=1;shape=mxgraph.electrical.abstract.mux2;operation=demux;" parent="1" vertex="1">
                    <mxGeometry x="140" y="260" width="80" height="120" as="geometry"/>
                </mxCell>
            </root>
        </mxGraphModel>
    </diagram>
</mxfile>